# xmcd
#
# Track frame offsets: 
#        150
#        17440
#        37041
#        54949
#        71671
#        92190
#        106327
#        120506
#        141279
#        161853
#        180887
#        201397
#        220698
#        237550
#        266316
#
# Disc length: 4209 seconds
#
# Revision: 0
# Processed by: cddbd v1.5.2PL0 Copyright (c) Steve Scherf et al.
# Submitted via: ExactAudioCopyFreeDBPlugin 1.0
#
DISCID=d0106f0f
DTITLE=Various Artist - Many Lessons Hiphop Islam West Africa
DYEAR=2008
DGENRE=Yes
TTITLE0=Bantu (feat. Ayuba) - Many Lessons
TTITLE1=African Akhlou Bi - Andando
TTITLE2=Keur Gui - Liye Raam
TTITLE3=Sister Fa - Selebou Yoon
TTITLE4=Les Escrocs - Salamalekoum
TTITLE5=Rifo and Lamine Kouyaté - Deadfathers.Fayaale
TTITLE6=MidNight Shems - Jbal Atlas
TTITLE7=Silatigui - My Life In The Ghetto
TTITLE8=Backa - Ya Rassulilah
TTITLE9=Docta - Xonet
TTITLE10=General Snipe (feat. Kiné Thiam) - Bataxal
TTITLE11=Gokh-Bi System - In God We Trust
TTITLE12=Gaston (feat. Niagass) - Jeuf Jel Leu
TTITLE13=Dread Skeezo (feat. Dread Maxim) - Mighty Intelligence
TTITLE14=Data
EXTD=
EXTT0=
EXTT1=
EXTT2=
EXTT3=
EXTT4=
EXTT5=
EXTT6=
EXTT7=
EXTT8=
EXTT9=
EXTT10=
EXTT11=
EXTT12=
EXTT13=
EXTT14=
PLAYORDER=
